<?xml version="1.0" encoding="utf-8"?>
<!-- Generator: Adobe Illustrator 22.0.0, SVG Export Plug-In . SVG Version: 6.00 Build 0)  -->
<svg version="1.1" id="Layer_1" xmlns="http://www.w3.org/2000/svg" xmlns:xlink="http://www.w3.org/1999/xlink" x="0px" y="0px"
	 viewBox="0 0 38 32" style="enable-background:new 0 0 38 32;" xml:space="preserve">
<style type="text/css">
	.st0{fill:none;stroke:#666766;stroke-miterlimit:10;}
	.st1{fill:none;stroke:#ED2024;stroke-miterlimit:10;}
	.st2{fill:none;}
</style>
<circle class="st0" cx="18.8" cy="6.3" r="1.5"/>
<line class="st0" x1="20.6" y1="5.9" x2="26.4" y2="3.2"/>
<line class="st0" x1="11.5" y1="9.9" x2="17.3" y2="7.2"/>
<polyline class="st0" points="18.8,7.8 18.8,28.4 34.1,28.4 "/>
<path class="st1" d="M16.4,24c0,2.5-2,4.6-4.6,4.6s-4.6-2-4.6-4.6s4.6-11.8,4.6-11.8S16.4,21.5,16.4,24z"/>
<path class="st0" d="M31.2,17.8c0,2.6-2.1,4.8-4.8,4.8s-4.8-2.1-4.8-4.8s4.8-12.3,4.8-12.3S31.2,15.2,31.2,17.8z"/>
<line class="st1" x1="7.2" y1="24" x2="16.4" y2="24"/>
<line class="st0" x1="21.6" y1="17.8" x2="31.2" y2="17.8"/>
<rect class="st2" width="38" height="32"/>
</svg>
